<svg version="1.1" xmlns="http://www.w3.org/2000/svg" xmlns:xlink="http://www.w3.org/1999/xlink" width="948" height="443"><defs/><g><text fill="#eeeeee" stroke="none" font-family="Arial" font-size="24px" font-style="normal" font-weight="normal" text-decoration="none" x="0" y="0">UNREGISTERED</text><text fill="#eeeeee" stroke="none" font-family="Arial" font-size="24px" font-style="normal" font-weight="normal" text-decoration="none" x="0" y="30">UNREGISTERED</text><text fill="#eeeeee" stroke="none" font-family="Arial" font-size="24px" font-style="normal" font-weight="normal" text-decoration="none" x="0" y="60">UNREGISTERED</text><text fill="#eeeeee" stroke="none" font-family="Arial" font-size="24px" font-style="normal" font-weight="normal" text-decoration="none" x="0" y="90">UNREGISTERED</text><text fill="#eeeeee" stroke="none" font-family="Arial" font-size="24px" font-style="normal" font-weight="normal" text-decoration="none" x="0" y="120">UNREGISTERED</text><text fill="#eeeeee" stroke="none" font-family="Arial" font-size="24px" font-style="normal" font-weight="normal" text-decoration="none" x="0" y="150">UNREGISTERED</text><text fill="#eeeeee" stroke="none" font-family="Arial" font-size="24px" font-style="normal" font-weight="normal" text-decoration="none" x="0" y="180">UNREGISTERED</text><text fill="#eeeeee" stroke="none" font-family="Arial" font-size="24px" font-style="normal" font-weight="normal" text-decoration="none" x="0" y="210">UNREGISTERED</text><text fill="#eeeeee" stroke="none" font-family="Arial" font-size="24px" font-style="normal" font-weight="normal" text-decoration="none" x="0" y="240">UNREGISTERED</text><text fill="#eeeeee" stroke="none" font-family="Arial" font-size="24px" font-style="normal" font-weight="normal" text-decoration="none" x="0" y="270">UNREGISTERED</text><text fill="#eeeeee" stroke="none" font-family="Arial" font-size="24px" font-style="normal" font-weight="normal" text-decoration="none" x="0" y="300">UNREGISTERED</text><text fill="#eeeeee" stroke="none" font-family="Arial" font-size="24px" font-style="normal" font-weight="normal" text-decoration="none" x="0" y="330">UNREGISTERED</text><text fill="#eeeeee" stroke="none" font-family="Arial" font-size="24px" font-style="normal" font-weight="normal" text-decoration="none" x="0" y="360">UNREGISTERED</text><text fill="#eeeeee" stroke="none" font-family="Arial" font-size="24px" font-style="normal" font-weight="normal" text-decoration="none" x="0" y="390">UNREGISTERED</text><text fill="#eeeeee" stroke="none" font-family="Arial" font-size="24px" font-style="normal" font-weight="normal" text-decoration="none" x="0" y="420">UNREGISTERED</text><text fill="#eeeeee" stroke="none" font-family="Arial" font-size="24px" font-style="normal" font-weight="normal" text-decoration="none" x="200" y="0">UNREGISTERED</text><text fill="#eeeeee" stroke="none" font-family="Arial" font-size="24px" font-style="normal" font-weight="normal" text-decoration="none" x="200" y="30">UNREGISTERED</text><text fill="#eeeeee" stroke="none" font-family="Arial" font-size="24px" font-style="normal" font-weight="normal" text-decoration="none" x="200" y="60">UNREGISTERED</text><text fill="#eeeeee" stroke="none" font-family="Arial" font-size="24px" font-style="normal" font-weight="normal" text-decoration="none" x="200" y="90">UNREGISTERED</text><text fill="#eeeeee" stroke="none" font-family="Arial" font-size="24px" font-style="normal" font-weight="normal" text-decoration="none" x="200" y="120">UNREGISTERED</text><text fill="#eeeeee" stroke="none" font-family="Arial" font-size="24px" font-style="normal" font-weight="normal" text-decoration="none" x="200" y="150">UNREGISTERED</text><text fill="#eeeeee" stroke="none" font-family="Arial" font-size="24px" font-style="normal" font-weight="normal" text-decoration="none" x="200" y="180">UNREGISTERED</text><text fill="#eeeeee" stroke="none" font-family="Arial" font-size="24px" font-style="normal" font-weight="normal" text-decoration="none" x="200" y="210">UNREGISTERED</text><text fill="#eeeeee" stroke="none" font-family="Arial" font-size="24px" font-style="normal" font-weight="normal" text-decoration="none" x="200" y="240">UNREGISTERED</text><text fill="#eeeeee" stroke="none" font-family="Arial" font-size="24px" font-style="normal" font-weight="normal" text-decoration="none" x="200" y="270">UNREGISTERED</text><text fill="#eeeeee" stroke="none" font-family="Arial" font-size="24px" font-style="normal" font-weight="normal" text-decoration="none" x="200" y="300">UNREGISTERED</text><text fill="#eeeeee" stroke="none" font-family="Arial" font-size="24px" font-style="normal" font-weight="normal" text-decoration="none" x="200" y="330">UNREGISTERED</text><text fill="#eeeeee" stroke="none" font-family="Arial" font-size="24px" font-style="normal" font-weight="normal" text-decoration="none" x="200" y="360">UNREGISTERED</text><text fill="#eeeeee" stroke="none" font-family="Arial" font-size="24px" font-style="normal" font-weight="normal" text-decoration="none" x="200" y="390">UNREGISTERED</text><text fill="#eeeeee" stroke="none" font-family="Arial" font-size="24px" font-style="normal" font-weight="normal" text-decoration="none" x="200" y="420">UNREGISTERED</text><text fill="#eeeeee" stroke="none" font-family="Arial" font-size="24px" font-style="normal" font-weight="normal" text-decoration="none" x="400" y="0">UNREGISTERED</text><text fill="#eeeeee" stroke="none" font-family="Arial" font-size="24px" font-style="normal" font-weight="normal" text-decoration="none" x="400" y="30">UNREGISTERED</text><text fill="#eeeeee" stroke="none" font-family="Arial" font-size="24px" font-style="normal" font-weight="normal" text-decoration="none" x="400" y="60">UNREGISTERED</text><text fill="#eeeeee" stroke="none" font-family="Arial" font-size="24px" font-style="normal" font-weight="normal" text-decoration="none" x="400" y="90">UNREGISTERED</text><text fill="#eeeeee" stroke="none" font-family="Arial" font-size="24px" font-style="normal" font-weight="normal" text-decoration="none" x="400" y="120">UNREGISTERED</text><text fill="#eeeeee" stroke="none" font-family="Arial" font-size="24px" font-style="normal" font-weight="normal" text-decoration="none" x="400" y="150">UNREGISTERED</text><text fill="#eeeeee" stroke="none" font-family="Arial" font-size="24px" font-style="normal" font-weight="normal" text-decoration="none" x="400" y="180">UNREGISTERED</text><text fill="#eeeeee" stroke="none" font-family="Arial" font-size="24px" font-style="normal" font-weight="normal" text-decoration="none" x="400" y="210">UNREGISTERED</text><text fill="#eeeeee" stroke="none" font-family="Arial" font-size="24px" font-style="normal" font-weight="normal" text-decoration="none" x="400" y="240">UNREGISTERED</text><text fill="#eeeeee" stroke="none" font-family="Arial" font-size="24px" font-style="normal" font-weight="normal" text-decoration="none" x="400" y="270">UNREGISTERED</text><text fill="#eeeeee" stroke="none" font-family="Arial" font-size="24px" font-style="normal" font-weight="normal" text-decoration="none" x="400" y="300">UNREGISTERED</text><text fill="#eeeeee" stroke="none" font-family="Arial" font-size="24px" font-style="normal" font-weight="normal" text-decoration="none" x="400" y="330">UNREGISTERED</text><text fill="#eeeeee" stroke="none" font-family="Arial" font-size="24px" font-style="normal" font-weight="normal" text-decoration="none" x="400" y="360">UNREGISTERED</text><text fill="#eeeeee" stroke="none" font-family="Arial" font-size="24px" font-style="normal" font-weight="normal" text-decoration="none" x="400" y="390">UNREGISTERED</text><text fill="#eeeeee" stroke="none" font-family="Arial" font-size="24px" font-style="normal" font-weight="normal" text-decoration="none" x="400" y="420">UNREGISTERED</text><text fill="#eeeeee" stroke="none" font-family="Arial" font-size="24px" font-style="normal" font-weight="normal" text-decoration="none" x="600" y="0">UNREGISTERED</text><text fill="#eeeeee" stroke="none" font-family="Arial" font-size="24px" font-style="normal" font-weight="normal" text-decoration="none" x="600" y="30">UNREGISTERED</text><text fill="#eeeeee" stroke="none" font-family="Arial" font-size="24px" font-style="normal" font-weight="normal" text-decoration="none" x="600" y="60">UNREGISTERED</text><text fill="#eeeeee" stroke="none" font-family="Arial" font-size="24px" font-style="normal" font-weight="normal" text-decoration="none" x="600" y="90">UNREGISTERED</text><text fill="#eeeeee" stroke="none" font-family="Arial" font-size="24px" font-style="normal" font-weight="normal" text-decoration="none" x="600" y="120">UNREGISTERED</text><text fill="#eeeeee" stroke="none" font-family="Arial" font-size="24px" font-style="normal" font-weight="normal" text-decoration="none" x="600" y="150">UNREGISTERED</text><text fill="#eeeeee" stroke="none" font-family="Arial" font-size="24px" font-style="normal" font-weight="normal" text-decoration="none" x="600" y="180">UNREGISTERED</text><text fill="#eeeeee" stroke="none" font-family="Arial" font-size="24px" font-style="normal" font-weight="normal" text-decoration="none" x="600" y="210">UNREGISTERED</text><text fill="#eeeeee" stroke="none" font-family="Arial" font-size="24px" font-style="normal" font-weight="normal" text-decoration="none" x="600" y="240">UNREGISTERED</text><text fill="#eeeeee" stroke="none" font-family="Arial" font-size="24px" font-style="normal" font-weight="normal" text-decoration="none" x="600" y="270">UNREGISTERED</text><text fill="#eeeeee" stroke="none" font-family="Arial" font-size="24px" font-style="normal" font-weight="normal" text-decoration="none" x="600" y="300">UNREGISTERED</text><text fill="#eeeeee" stroke="none" font-family="Arial" font-size="24px" font-style="normal" font-weight="normal" text-decoration="none" x="600" y="330">UNREGISTERED</text><text fill="#eeeeee" stroke="none" font-family="Arial" font-size="24px" font-style="normal" font-weight="normal" text-decoration="none" x="600" y="360">UNREGISTERED</text><text fill="#eeeeee" stroke="none" font-family="Arial" font-size="24px" font-style="normal" font-weight="normal" text-decoration="none" x="600" y="390">UNREGISTERED</text><text fill="#eeeeee" stroke="none" font-family="Arial" font-size="24px" font-style="normal" font-weight="normal" text-decoration="none" x="600" y="420">UNREGISTERED</text><text fill="#eeeeee" stroke="none" font-family="Arial" font-size="24px" font-style="normal" font-weight="normal" text-decoration="none" x="800" y="0">UNREGISTERED</text><text fill="#eeeeee" stroke="none" font-family="Arial" font-size="24px" font-style="normal" font-weight="normal" text-decoration="none" x="800" y="30">UNREGISTERED</text><text fill="#eeeeee" stroke="none" font-family="Arial" font-size="24px" font-style="normal" font-weight="normal" text-decoration="none" x="800" y="60">UNREGISTERED</text><text fill="#eeeeee" stroke="none" font-family="Arial" font-size="24px" font-style="normal" font-weight="normal" text-decoration="none" x="800" y="90">UNREGISTERED</text><text fill="#eeeeee" stroke="none" font-family="Arial" font-size="24px" font-style="normal" font-weight="normal" text-decoration="none" x="800" y="120">UNREGISTERED</text><text fill="#eeeeee" stroke="none" font-family="Arial" font-size="24px" font-style="normal" font-weight="normal" text-decoration="none" x="800" y="150">UNREGISTERED</text><text fill="#eeeeee" stroke="none" font-family="Arial" font-size="24px" font-style="normal" font-weight="normal" text-decoration="none" x="800" y="180">UNREGISTERED</text><text fill="#eeeeee" stroke="none" font-family="Arial" font-size="24px" font-style="normal" font-weight="normal" text-decoration="none" x="800" y="210">UNREGISTERED</text><text fill="#eeeeee" stroke="none" font-family="Arial" font-size="24px" font-style="normal" font-weight="normal" text-decoration="none" x="800" y="240">UNREGISTERED</text><text fill="#eeeeee" stroke="none" font-family="Arial" font-size="24px" font-style="normal" font-weight="normal" text-decoration="none" x="800" y="270">UNREGISTERED</text><text fill="#eeeeee" stroke="none" font-family="Arial" font-size="24px" font-style="normal" font-weight="normal" text-decoration="none" x="800" y="300">UNREGISTERED</text><text fill="#eeeeee" stroke="none" font-family="Arial" font-size="24px" font-style="normal" font-weight="normal" text-decoration="none" x="800" y="330">UNREGISTERED</text><text fill="#eeeeee" stroke="none" font-family="Arial" font-size="24px" font-style="normal" font-weight="normal" text-decoration="none" x="800" y="360">UNREGISTERED</text><text fill="#eeeeee" stroke="none" font-family="Arial" font-size="24px" font-style="normal" font-weight="normal" text-decoration="none" x="800" y="390">UNREGISTERED</text><text fill="#eeeeee" stroke="none" font-family="Arial" font-size="24px" font-style="normal" font-weight="normal" text-decoration="none" x="800" y="420">UNREGISTERED</text><g transform="translate(-118,-182) scale(1,1)"><rect fill="#C0C0C0" stroke="none" x="903" y="383" width="160" height="100" opacity="0.2"/></g><g transform="translate(-118,-182) scale(1,1)"><rect fill="#ffffff" stroke="none" x="896" y="376" width="160" height="100"/></g><g transform="translate(-118,-182) scale(1,1)"><path fill="none" stroke="#000000" d="M 896 376 L 1056 376 L 1056 476 L 896 476 L 896 376 Z Z" stroke-miterlimit="10"/></g><g transform="translate(-118,-182) scale(1,1)"><path fill="none" stroke="#000000" d="M 896 401 L 1056 401" stroke-miterlimit="10"/></g><g transform="translate(-118,-182) scale(1,1)"><path fill="none" stroke="#000000" d="M 896 424 L 1056 424" stroke-miterlimit="10"/></g><g transform="translate(-118,-182) scale(1,1)"><g><path fill="none" stroke="none"/><text fill="#000000" stroke="none" font-family="Arial" font-size="13px" font-style="normal" font-weight="bold" text-decoration="none" x="960.8291015625" y="395.5">Atom</text></g></g><g transform="translate(-118,-182) scale(1,1)"><g><path fill="none" stroke="none"/><text fill="#000000" stroke="none" font-family="Arial" font-size="13px" font-style="normal" font-weight="normal" text-decoration="none" x="901" y="418.5">-Nom: string {unique}</text></g></g><g transform="translate(-118,-182) scale(1,1)"><g><path fill="none" stroke="none"/><text fill="#000000" stroke="none" font-family="Arial" font-size="13px" font-style="normal" font-weight="normal" text-decoration="none" x="901" y="441.5">+evaluate()</text></g></g><g transform="translate(-118,-182) scale(1,1)"><g><path fill="none" stroke="none"/><text fill="#000000" stroke="none" font-family="Arial" font-size="13px" font-style="normal" font-weight="normal" text-decoration="none" x="901" y="456.5">+toString()</text></g></g><g transform="translate(-118,-182) scale(1,1)"><rect fill="#C0C0C0" stroke="none" x="823" y="199" width="95.72802734375" height="113" opacity="0.2"/></g><g transform="translate(-118,-182) scale(1,1)"><rect fill="#ffffff" stroke="none" x="816" y="192" width="95.72802734375" height="113"/></g><g transform="translate(-118,-182) scale(1,1)"><path fill="none" stroke="#000000" d="M 816 192 L 911.72802734375 192 L 911.72802734375 305 L 816 305 L 816 192 Z Z" stroke-miterlimit="10"/></g><g transform="translate(-118,-182) scale(1,1)"><path fill="none" stroke="#000000" d="M 816 283 L 911.72802734375 283" stroke-miterlimit="10"/></g><g transform="translate(-118,-182) scale(1,1)"><path fill="none" stroke="#000000" d="M 816 230 L 911.72802734375 230" stroke-miterlimit="10"/></g><g transform="translate(-118,-182) scale(1,1)"><g><path fill="none" stroke="none"/><text fill="#000000" stroke="none" font-family="Arial" font-size="13px" font-style="normal" font-weight="normal" text-decoration="none" x="820.5" y="209.5">«enumeration»</text></g></g><g transform="translate(-118,-182) scale(1,1)"><g><path fill="none" stroke="none"/><text fill="#000000" stroke="none" font-family="Arial" font-size="13px" font-style="normal" font-weight="bold" text-decoration="none" x="832.551025390625" y="224.5">ThreeVal_t</text></g></g><g transform="translate(-118,-182) scale(1,1)"><g><path fill="none" stroke="none"/><text fill="#000000" stroke="none" font-family="Arial" font-size="13px" font-style="normal" font-weight="normal" text-decoration="none" x="821" y="247.5">T</text></g></g><g transform="translate(-118,-182) scale(1,1)"><g><path fill="none" stroke="none"/><text fill="#000000" stroke="none" font-family="Arial" font-size="13px" font-style="normal" font-weight="normal" text-decoration="none" x="821" y="262.5">F</text></g></g><g transform="translate(-118,-182) scale(1,1)"><g><path fill="none" stroke="none"/><text fill="#000000" stroke="none" font-family="Arial" font-size="13px" font-style="normal" font-weight="normal" text-decoration="none" x="821" y="277.5">U</text></g></g><g transform="translate(-118,-182) scale(1,1)"><path fill="none" stroke="#000000" d="M 944 375 L 900 306" stroke-miterlimit="10"/></g><g transform="translate(-118,-182) scale(1,1)"><path fill="#000000" stroke="none" d="M 909.0134125247433 312.3054258110614 L 900 306 L 901.9148357686075 316.832054467148 L 911.8286507155817 324.5494749857986"/></g><g transform="translate(-118,-182) scale(1,1)"><path fill="none" stroke="#000000" d="M 909.0134125247433 312.3054258110614 L 900 306 L 901.9148357686075 316.832054467148 L 911.8286507155817 324.5494749857986 L 909.0134125247433 312.3054258110614" stroke-miterlimit="10"/></g><g transform="translate(-118,-182) scale(1,1)"><g><path fill="none" stroke="none"/><text fill="#000000" stroke="none" font-family="Arial" font-size="13px" font-style="normal" font-weight="normal" text-decoration="none" x="894.13134765625" y="355.5">-Val</text></g></g><g transform="translate(-118,-182) scale(1,1)"><rect fill="#C0C0C0" stroke="none" x="639" y="335" width="88" height="80" opacity="0.2"/></g><g transform="translate(-118,-182) scale(1,1)"><rect fill="#ffffff" stroke="none" x="632" y="328" width="88" height="80"/></g><g transform="translate(-118,-182) scale(1,1)"><path fill="none" stroke="#000000" d="M 632 328 L 720 328 L 720 408 L 632 408 L 632 328 Z Z" stroke-miterlimit="10"/></g><g transform="translate(-118,-182) scale(1,1)"><path fill="none" stroke="#000000" d="M 632 353 L 720 353" stroke-miterlimit="10"/></g><g transform="translate(-118,-182) scale(1,1)"><path fill="none" stroke="#000000" d="M 632 363 L 720 363" stroke-miterlimit="10"/></g><g transform="translate(-118,-182) scale(1,1)"><g><path fill="none" stroke="none"/><text fill="#000000" stroke="none" font-family="Arial" font-size="13px" font-style="italic" font-weight="bold" text-decoration="none" x="653.95458984375" y="347.5">ExpLog</text></g></g><g transform="translate(-118,-182) scale(1,1)"><g><path fill="none" stroke="none"/><text fill="#000000" stroke="none" font-family="Arial" font-size="13px" font-style="italic" font-weight="normal" text-decoration="none" x="637" y="380.5">+to_string()</text></g></g><g transform="translate(-118,-182) scale(1,1)"><g><path fill="none" stroke="none"/><text fill="#000000" stroke="none" font-family="Arial" font-size="13px" font-style="italic" font-weight="normal" text-decoration="none" x="637" y="395.5">+evaluate()</text></g></g><g transform="translate(-118,-182) scale(1,1)"><rect fill="#C0C0C0" stroke="none" x="399" y="343" width="104" height="96" opacity="0.2"/></g><g transform="translate(-118,-182) scale(1,1)"><rect fill="#ffffff" stroke="none" x="392" y="336" width="104" height="96"/></g><g transform="translate(-118,-182) scale(1,1)"><path fill="none" stroke="#000000" d="M 392 336 L 496 336 L 496 432 L 392 432 L 392 336 Z Z" stroke-miterlimit="10"/></g><g transform="translate(-118,-182) scale(1,1)"><path fill="none" stroke="#000000" d="M 392 361 L 496 361" stroke-miterlimit="10"/></g><g transform="translate(-118,-182) scale(1,1)"><path fill="none" stroke="#000000" d="M 392 371 L 496 371" stroke-miterlimit="10"/></g><g transform="translate(-118,-182) scale(1,1)"><g><path fill="none" stroke="none"/><text fill="#000000" stroke="none" font-family="Arial" font-size="13px" font-style="normal" font-weight="bold" text-decoration="none" x="422.6845703125" y="355.5">ExpNot</text></g></g><g transform="translate(-118,-182) scale(1,1)"><g><path fill="none" stroke="none"/><text fill="#000000" stroke="none" font-family="Arial" font-size="13px" font-style="normal" font-weight="normal" text-decoration="none" x="397" y="388.5">+to_string()</text></g></g><g transform="translate(-118,-182) scale(1,1)"><g><path fill="none" stroke="none"/><text fill="#000000" stroke="none" font-family="Arial" font-size="13px" font-style="normal" font-weight="normal" text-decoration="none" x="397" y="403.5">+evaluate()</text></g></g><g transform="translate(-118,-182) scale(1,1)"><rect fill="#C0C0C0" stroke="none" x="415" y="535" width="96" height="72" opacity="0.2"/></g><g transform="translate(-118,-182) scale(1,1)"><rect fill="#ffffff" stroke="none" x="408" y="528" width="96" height="72"/></g><g transform="translate(-118,-182) scale(1,1)"><path fill="none" stroke="#000000" d="M 408 528 L 504 528 L 504 600 L 408 600 L 408 528 Z Z" stroke-miterlimit="10"/></g><g transform="translate(-118,-182) scale(1,1)"><path fill="none" stroke="#000000" d="M 408 553 L 504 553" stroke-miterlimit="10"/></g><g transform="translate(-118,-182) scale(1,1)"><path fill="none" stroke="#000000" d="M 408 563 L 504 563" stroke-miterlimit="10"/></g><g transform="translate(-118,-182) scale(1,1)"><g><path fill="none" stroke="none"/><text fill="#000000" stroke="none" font-family="Arial" font-size="13px" font-style="normal" font-weight="bold" text-decoration="none" x="437.5791015625" y="547.5">ExpOr</text></g></g><g transform="translate(-118,-182) scale(1,1)"><g><path fill="none" stroke="none"/><text fill="#000000" stroke="none" font-family="Arial" font-size="13px" font-style="normal" font-weight="normal" text-decoration="none" x="413" y="580.5">+to_string()</text></g></g><g transform="translate(-118,-182) scale(1,1)"><g><path fill="none" stroke="none"/><text fill="#000000" stroke="none" font-family="Arial" font-size="13px" font-style="normal" font-weight="normal" text-decoration="none" x="413" y="595.5">+evaluate()</text></g></g><g transform="translate(-118,-182) scale(1,1)"><rect fill="#C0C0C0" stroke="none" x="831" y="535" width="89.57080078125" height="87" opacity="0.2"/></g><g transform="translate(-118,-182) scale(1,1)"><rect fill="#ffffff" stroke="none" x="824" y="528" width="89.57080078125" height="87"/></g><g transform="translate(-118,-182) scale(1,1)"><path fill="none" stroke="#000000" d="M 824 528 L 913.57080078125 528 L 913.57080078125 615 L 824 615 L 824 528 Z Z" stroke-miterlimit="10"/></g><g transform="translate(-118,-182) scale(1,1)"><path fill="none" stroke="#000000" d="M 824 553 L 913.57080078125 553" stroke-miterlimit="10"/></g><g transform="translate(-118,-182) scale(1,1)"><path fill="none" stroke="#000000" d="M 824 563 L 913.57080078125 563" stroke-miterlimit="10"/></g><g transform="translate(-118,-182) scale(1,1)"><g><path fill="none" stroke="none"/><text fill="#000000" stroke="none" font-family="Arial" font-size="13px" font-style="normal" font-weight="bold" text-decoration="none" x="846.01953125" y="547.5">ExpAnd</text></g></g><g transform="translate(-118,-182) scale(1,1)"><g><path fill="none" stroke="none"/><text fill="#000000" stroke="none" font-family="Arial" font-size="13px" font-style="normal" font-weight="normal" text-decoration="none" x="829" y="580.5">+to_string()</text></g></g><g transform="translate(-118,-182) scale(1,1)"><g><path fill="none" stroke="none"/><text fill="#000000" stroke="none" font-family="Arial" font-size="13px" font-style="normal" font-weight="normal" text-decoration="none" x="829" y="595.5">+evaluate()</text></g></g><g transform="translate(-118,-182) scale(1,1)"><g><path fill="none" stroke="none"/><text fill="#000000" stroke="none" font-family="Arial" font-size="13px" font-style="normal" font-weight="normal" text-decoration="none" x="829" y="610.5">+create()</text></g></g><g transform="translate(-118,-182) scale(1,1)"><path fill="none" stroke="#000000" d="M 497 367 L 520 360 L 631 366" stroke-miterlimit="10"/></g><g transform="translate(-118,-182) scale(1,1)"><path fill="#FFFFFF" stroke="none" d="M 610.2498594761762 373.3096968638628 L 631 366 L 611.158698704175 356.4961711458859"/></g><g transform="translate(-118,-182) scale(1,1)"><path fill="none" stroke="#000000" d="M 610.2498594761762 373.3096968638628 L 631 366 L 611.158698704175 356.4961711458859 L 610.2498594761762 373.3096968638628" stroke-miterlimit="10"/></g><g transform="translate(-118,-182) scale(1,1)"><rect fill="#C0C0C0" stroke="none" x="631" y="567" width="104" height="44" opacity="0.2"/></g><g transform="translate(-118,-182) scale(1,1)"><rect fill="#ffffff" stroke="none" x="624" y="560" width="104" height="44"/></g><g transform="translate(-118,-182) scale(1,1)"><path fill="none" stroke="#000000" d="M 624 560 L 728 560 L 728 604 L 624 604 L 624 560 Z Z" stroke-miterlimit="10"/></g><g transform="translate(-118,-182) scale(1,1)"><path fill="none" stroke="#000000" d="M 624 585 L 728 585" stroke-miterlimit="10"/></g><g transform="translate(-118,-182) scale(1,1)"><path fill="none" stroke="#000000" d="M 624 595 L 728 595" stroke-miterlimit="10"/></g><g transform="translate(-118,-182) scale(1,1)"><g><path fill="none" stroke="none"/><text fill="#000000" stroke="none" font-family="Arial" font-size="13px" font-style="italic" font-weight="bold" text-decoration="none" x="655.405029296875" y="579.5">ExpBin</text></g></g><g transform="translate(-118,-182) scale(1,1)"><path fill="none" stroke="#000000" d="M 505 568 L 623 578" stroke-miterlimit="10"/></g><g transform="translate(-118,-182) scale(1,1)"><path fill="#FFFFFF" stroke="none" d="M 602.0363169754316 584.6726302194429 L 623 578 L 603.458175498164 567.8946996512008"/></g><g transform="translate(-118,-182) scale(1,1)"><path fill="none" stroke="#000000" d="M 602.0363169754316 584.6726302194429 L 623 578 L 603.458175498164 567.8946996512008 L 602.0363169754316 584.6726302194429" stroke-miterlimit="10"/></g><g transform="translate(-118,-182) scale(1,1)"><path fill="none" stroke="#000000" d="M 823 574 L 729 579" stroke-miterlimit="10"/></g><g transform="translate(-118,-182) scale(1,1)"><path fill="#FFFFFF" stroke="none" d="M 748.8494681186523 569.513239994255 L 729 579 L 749.743845841197 586.3275411780935"/></g><g transform="translate(-118,-182) scale(1,1)"><path fill="none" stroke="#000000" d="M 748.8494681186523 569.513239994255 L 729 579 L 749.743845841197 586.3275411780935 L 748.8494681186523 569.513239994255" stroke-miterlimit="10"/></g><g transform="translate(-118,-182) scale(1,1)"><path fill="none" stroke="#000000" d="M 676 559 L 676 409" stroke-miterlimit="10"/></g><g transform="translate(-118,-182) scale(1,1)"><path fill="#FFFFFF" stroke="none" d="M 684.419035512032 429.3253497152483 L 676 409 L 667.580964487968 429.3253497152483"/></g><g transform="translate(-118,-182) scale(1,1)"><path fill="none" stroke="#000000" d="M 684.419035512032 429.3253497152483 L 676 409 L 667.580964487968 429.3253497152483 L 684.419035512032 429.3253497152483" stroke-miterlimit="10"/></g><g transform="translate(-118,-182) scale(1,1)"><path fill="none" stroke="#000000" d="M 895 410 L 721 377" stroke-miterlimit="10"/></g><g transform="translate(-118,-182) scale(1,1)"><path fill="#FFFFFF" stroke="none" d="M 742.5381318232743 372.5157076853468 L 721 377 L 739.400632570841 389.05888556181304"/></g><g transform="translate(-118,-182) scale(1,1)"><path fill="none" stroke="#000000" d="M 742.5381318232743 372.5157076853468 L 721 377 L 739.400632570841 389.05888556181304 L 742.5381318232743 372.5157076853468" stroke-miterlimit="10"/></g><g transform="translate(-118,-182) scale(1,1)"><path fill="none" stroke="#000000" d="M 823 540 L 760 496 L 703 409" stroke-miterlimit="10"/></g><g transform="translate(-118,-182) scale(1,1)"><path fill="#FFFFFF" stroke="none" d="M 712.0905106436742 415.193756230047 L 703 409 L 705.0483146893079 419.80760875187315 L 715.0565776608393 427.40214485075455"/></g><g transform="translate(-118,-182) scale(1,1)"><path fill="none" stroke="#000000" d="M 712.0905106436742 415.193756230047 L 703 409 L 705.0483146893079 419.80760875187315 L 715.0565776608393 427.40214485075455 L 712.0905106436742 415.193756230047" stroke-miterlimit="10"/></g><g transform="translate(-118,-182) scale(1,1)"><g><path fill="none" stroke="none"/><text fill="#000000" stroke="none" font-family="Arial" font-size="13px" font-style="normal" font-weight="normal" text-decoration="none" x="760.13134765625" y="499.5">-operands</text></g></g><g transform="translate(-118,-182) scale(1,1)"><path fill="none" stroke="#000000" d="M 505 527 L 568 480 L 636 409" stroke-miterlimit="10"/></g><g transform="translate(-118,-182) scale(1,1)"><path fill="#FFFFFF" stroke="none" d="M 632.0107495672349 419.2511404723906 L 636 409 L 625.9305230242172 413.42782491006375 L 620.7829431069509 424.8883976383306"/></g><g transform="translate(-118,-182) scale(1,1)"><path fill="none" stroke="#000000" d="M 632.0107495672349 419.2511404723906 L 636 409 L 625.9305230242172 413.42782491006375 L 620.7829431069509 424.8883976383306 L 632.0107495672349 419.2511404723906" stroke-miterlimit="10"/></g><g transform="translate(-118,-182) scale(1,1)"><g><path fill="none" stroke="none"/><text fill="#000000" stroke="none" font-family="Arial" font-size="13px" font-style="normal" font-weight="normal" text-decoration="none" x="496.13134765625" y="484.5">-operands</text></g></g><g transform="translate(-118,-182) scale(1,1)"><path fill="none" stroke="#000000" d="M 497 412 L 520 424 L 552 424 L 631 388" stroke-miterlimit="10"/></g><g transform="translate(-118,-182) scale(1,1)"><path fill="#FFFFFF" stroke="none" d="M 623.4978178440956 396.04470402809386 L 631 388 L 620.0066913529594 388.3836208947672 L 610.9806250143126 397.12275315803475"/></g><g transform="translate(-118,-182) scale(1,1)"><path fill="none" stroke="#000000" d="M 623.4978178440956 396.04470402809386 L 631 388 L 620.0066913529594 388.3836208947672 L 610.9806250143126 397.12275315803475 L 623.4978178440956 396.04470402809386" stroke-miterlimit="10"/></g><g transform="translate(-118,-182) scale(1,1)"><g><path fill="none" stroke="none"/><text fill="#000000" stroke="none" font-family="Arial" font-size="13px" font-style="normal" font-weight="normal" text-decoration="none" x="510.13134765625" y="415.5">-operand</text></g></g></g></svg>