<svg version="1.1" xmlns="http://www.w3.org/2000/svg" xmlns:xlink="http://www.w3.org/1999/xlink" width="1036" height="548"><defs/><g><text fill="#eeeeee" stroke="none" font-family="Arial" font-size="24px" font-style="normal" font-weight="normal" text-decoration="none" x="0" y="0">UNREGISTERED</text><text fill="#eeeeee" stroke="none" font-family="Arial" font-size="24px" font-style="normal" font-weight="normal" text-decoration="none" x="0" y="30">UNREGISTERED</text><text fill="#eeeeee" stroke="none" font-family="Arial" font-size="24px" font-style="normal" font-weight="normal" text-decoration="none" x="0" y="60">UNREGISTERED</text><text fill="#eeeeee" stroke="none" font-family="Arial" font-size="24px" font-style="normal" font-weight="normal" text-decoration="none" x="0" y="90">UNREGISTERED</text><text fill="#eeeeee" stroke="none" font-family="Arial" font-size="24px" font-style="normal" font-weight="normal" text-decoration="none" x="0" y="120">UNREGISTERED</text><text fill="#eeeeee" stroke="none" font-family="Arial" font-size="24px" font-style="normal" font-weight="normal" text-decoration="none" x="0" y="150">UNREGISTERED</text><text fill="#eeeeee" stroke="none" font-family="Arial" font-size="24px" font-style="normal" font-weight="normal" text-decoration="none" x="0" y="180">UNREGISTERED</text><text fill="#eeeeee" stroke="none" font-family="Arial" font-size="24px" font-style="normal" font-weight="normal" text-decoration="none" x="0" y="210">UNREGISTERED</text><text fill="#eeeeee" stroke="none" font-family="Arial" font-size="24px" font-style="normal" font-weight="normal" text-decoration="none" x="0" y="240">UNREGISTERED</text><text fill="#eeeeee" stroke="none" font-family="Arial" font-size="24px" font-style="normal" font-weight="normal" text-decoration="none" x="0" y="270">UNREGISTERED</text><text fill="#eeeeee" stroke="none" font-family="Arial" font-size="24px" font-style="normal" font-weight="normal" text-decoration="none" x="0" y="300">UNREGISTERED</text><text fill="#eeeeee" stroke="none" font-family="Arial" font-size="24px" font-style="normal" font-weight="normal" text-decoration="none" x="0" y="330">UNREGISTERED</text><text fill="#eeeeee" stroke="none" font-family="Arial" font-size="24px" font-style="normal" font-weight="normal" text-decoration="none" x="0" y="360">UNREGISTERED</text><text fill="#eeeeee" stroke="none" font-family="Arial" font-size="24px" font-style="normal" font-weight="normal" text-decoration="none" x="0" y="390">UNREGISTERED</text><text fill="#eeeeee" stroke="none" font-family="Arial" font-size="24px" font-style="normal" font-weight="normal" text-decoration="none" x="0" y="420">UNREGISTERED</text><text fill="#eeeeee" stroke="none" font-family="Arial" font-size="24px" font-style="normal" font-weight="normal" text-decoration="none" x="0" y="450">UNREGISTERED</text><text fill="#eeeeee" stroke="none" font-family="Arial" font-size="24px" font-style="normal" font-weight="normal" text-decoration="none" x="0" y="480">UNREGISTERED</text><text fill="#eeeeee" stroke="none" font-family="Arial" font-size="24px" font-style="normal" font-weight="normal" text-decoration="none" x="0" y="510">UNREGISTERED</text><text fill="#eeeeee" stroke="none" font-family="Arial" font-size="24px" font-style="normal" font-weight="normal" text-decoration="none" x="0" y="540">UNREGISTERED</text><text fill="#eeeeee" stroke="none" font-family="Arial" font-size="24px" font-style="normal" font-weight="normal" text-decoration="none" x="200" y="0">UNREGISTERED</text><text fill="#eeeeee" stroke="none" font-family="Arial" font-size="24px" font-style="normal" font-weight="normal" text-decoration="none" x="200" y="30">UNREGISTERED</text><text fill="#eeeeee" stroke="none" font-family="Arial" font-size="24px" font-style="normal" font-weight="normal" text-decoration="none" x="200" y="60">UNREGISTERED</text><text fill="#eeeeee" stroke="none" font-family="Arial" font-size="24px" font-style="normal" font-weight="normal" text-decoration="none" x="200" y="90">UNREGISTERED</text><text fill="#eeeeee" stroke="none" font-family="Arial" font-size="24px" font-style="normal" font-weight="normal" text-decoration="none" x="200" y="120">UNREGISTERED</text><text fill="#eeeeee" stroke="none" font-family="Arial" font-size="24px" font-style="normal" font-weight="normal" text-decoration="none" x="200" y="150">UNREGISTERED</text><text fill="#eeeeee" stroke="none" font-family="Arial" font-size="24px" font-style="normal" font-weight="normal" text-decoration="none" x="200" y="180">UNREGISTERED</text><text fill="#eeeeee" stroke="none" font-family="Arial" font-size="24px" font-style="normal" font-weight="normal" text-decoration="none" x="200" y="210">UNREGISTERED</text><text fill="#eeeeee" stroke="none" font-family="Arial" font-size="24px" font-style="normal" font-weight="normal" text-decoration="none" x="200" y="240">UNREGISTERED</text><text fill="#eeeeee" stroke="none" font-family="Arial" font-size="24px" font-style="normal" font-weight="normal" text-decoration="none" x="200" y="270">UNREGISTERED</text><text fill="#eeeeee" stroke="none" font-family="Arial" font-size="24px" font-style="normal" font-weight="normal" text-decoration="none" x="200" y="300">UNREGISTERED</text><text fill="#eeeeee" stroke="none" font-family="Arial" font-size="24px" font-style="normal" font-weight="normal" text-decoration="none" x="200" y="330">UNREGISTERED</text><text fill="#eeeeee" stroke="none" font-family="Arial" font-size="24px" font-style="normal" font-weight="normal" text-decoration="none" x="200" y="360">UNREGISTERED</text><text fill="#eeeeee" stroke="none" font-family="Arial" font-size="24px" font-style="normal" font-weight="normal" text-decoration="none" x="200" y="390">UNREGISTERED</text><text fill="#eeeeee" stroke="none" font-family="Arial" font-size="24px" font-style="normal" font-weight="normal" text-decoration="none" x="200" y="420">UNREGISTERED</text><text fill="#eeeeee" stroke="none" font-family="Arial" font-size="24px" font-style="normal" font-weight="normal" text-decoration="none" x="200" y="450">UNREGISTERED</text><text fill="#eeeeee" stroke="none" font-family="Arial" font-size="24px" font-style="normal" font-weight="normal" text-decoration="none" x="200" y="480">UNREGISTERED</text><text fill="#eeeeee" stroke="none" font-family="Arial" font-size="24px" font-style="normal" font-weight="normal" text-decoration="none" x="200" y="510">UNREGISTERED</text><text fill="#eeeeee" stroke="none" font-family="Arial" font-size="24px" font-style="normal" font-weight="normal" text-decoration="none" x="200" y="540">UNREGISTERED</text><text fill="#eeeeee" stroke="none" font-family="Arial" font-size="24px" font-style="normal" font-weight="normal" text-decoration="none" x="400" y="0">UNREGISTERED</text><text fill="#eeeeee" stroke="none" font-family="Arial" font-size="24px" font-style="normal" font-weight="normal" text-decoration="none" x="400" y="30">UNREGISTERED</text><text fill="#eeeeee" stroke="none" font-family="Arial" font-size="24px" font-style="normal" font-weight="normal" text-decoration="none" x="400" y="60">UNREGISTERED</text><text fill="#eeeeee" stroke="none" font-family="Arial" font-size="24px" font-style="normal" font-weight="normal" text-decoration="none" x="400" y="90">UNREGISTERED</text><text fill="#eeeeee" stroke="none" font-family="Arial" font-size="24px" font-style="normal" font-weight="normal" text-decoration="none" x="400" y="120">UNREGISTERED</text><text fill="#eeeeee" stroke="none" font-family="Arial" font-size="24px" font-style="normal" font-weight="normal" text-decoration="none" x="400" y="150">UNREGISTERED</text><text fill="#eeeeee" stroke="none" font-family="Arial" font-size="24px" font-style="normal" font-weight="normal" text-decoration="none" x="400" y="180">UNREGISTERED</text><text fill="#eeeeee" stroke="none" font-family="Arial" font-size="24px" font-style="normal" font-weight="normal" text-decoration="none" x="400" y="210">UNREGISTERED</text><text fill="#eeeeee" stroke="none" font-family="Arial" font-size="24px" font-style="normal" font-weight="normal" text-decoration="none" x="400" y="240">UNREGISTERED</text><text fill="#eeeeee" stroke="none" font-family="Arial" font-size="24px" font-style="normal" font-weight="normal" text-decoration="none" x="400" y="270">UNREGISTERED</text><text fill="#eeeeee" stroke="none" font-family="Arial" font-size="24px" font-style="normal" font-weight="normal" text-decoration="none" x="400" y="300">UNREGISTERED</text><text fill="#eeeeee" stroke="none" font-family="Arial" font-size="24px" font-style="normal" font-weight="normal" text-decoration="none" x="400" y="330">UNREGISTERED</text><text fill="#eeeeee" stroke="none" font-family="Arial" font-size="24px" font-style="normal" font-weight="normal" text-decoration="none" x="400" y="360">UNREGISTERED</text><text fill="#eeeeee" stroke="none" font-family="Arial" font-size="24px" font-style="normal" font-weight="normal" text-decoration="none" x="400" y="390">UNREGISTERED</text><text fill="#eeeeee" stroke="none" font-family="Arial" font-size="24px" font-style="normal" font-weight="normal" text-decoration="none" x="400" y="420">UNREGISTERED</text><text fill="#eeeeee" stroke="none" font-family="Arial" font-size="24px" font-style="normal" font-weight="normal" text-decoration="none" x="400" y="450">UNREGISTERED</text><text fill="#eeeeee" stroke="none" font-family="Arial" font-size="24px" font-style="normal" font-weight="normal" text-decoration="none" x="400" y="480">UNREGISTERED</text><text fill="#eeeeee" stroke="none" font-family="Arial" font-size="24px" font-style="normal" font-weight="normal" text-decoration="none" x="400" y="510">UNREGISTERED</text><text fill="#eeeeee" stroke="none" font-family="Arial" font-size="24px" font-style="normal" font-weight="normal" text-decoration="none" x="400" y="540">UNREGISTERED</text><text fill="#eeeeee" stroke="none" font-family="Arial" font-size="24px" font-style="normal" font-weight="normal" text-decoration="none" x="600" y="0">UNREGISTERED</text><text fill="#eeeeee" stroke="none" font-family="Arial" font-size="24px" font-style="normal" font-weight="normal" text-decoration="none" x="600" y="30">UNREGISTERED</text><text fill="#eeeeee" stroke="none" font-family="Arial" font-size="24px" font-style="normal" font-weight="normal" text-decoration="none" x="600" y="60">UNREGISTERED</text><text fill="#eeeeee" stroke="none" font-family="Arial" font-size="24px" font-style="normal" font-weight="normal" text-decoration="none" x="600" y="90">UNREGISTERED</text><text fill="#eeeeee" stroke="none" font-family="Arial" font-size="24px" font-style="normal" font-weight="normal" text-decoration="none" x="600" y="120">UNREGISTERED</text><text fill="#eeeeee" stroke="none" font-family="Arial" font-size="24px" font-style="normal" font-weight="normal" text-decoration="none" x="600" y="150">UNREGISTERED</text><text fill="#eeeeee" stroke="none" font-family="Arial" font-size="24px" font-style="normal" font-weight="normal" text-decoration="none" x="600" y="180">UNREGISTERED</text><text fill="#eeeeee" stroke="none" font-family="Arial" font-size="24px" font-style="normal" font-weight="normal" text-decoration="none" x="600" y="210">UNREGISTERED</text><text fill="#eeeeee" stroke="none" font-family="Arial" font-size="24px" font-style="normal" font-weight="normal" text-decoration="none" x="600" y="240">UNREGISTERED</text><text fill="#eeeeee" stroke="none" font-family="Arial" font-size="24px" font-style="normal" font-weight="normal" text-decoration="none" x="600" y="270">UNREGISTERED</text><text fill="#eeeeee" stroke="none" font-family="Arial" font-size="24px" font-style="normal" font-weight="normal" text-decoration="none" x="600" y="300">UNREGISTERED</text><text fill="#eeeeee" stroke="none" font-family="Arial" font-size="24px" font-style="normal" font-weight="normal" text-decoration="none" x="600" y="330">UNREGISTERED</text><text fill="#eeeeee" stroke="none" font-family="Arial" font-size="24px" font-style="normal" font-weight="normal" text-decoration="none" x="600" y="360">UNREGISTERED</text><text fill="#eeeeee" stroke="none" font-family="Arial" font-size="24px" font-style="normal" font-weight="normal" text-decoration="none" x="600" y="390">UNREGISTERED</text><text fill="#eeeeee" stroke="none" font-family="Arial" font-size="24px" font-style="normal" font-weight="normal" text-decoration="none" x="600" y="420">UNREGISTERED</text><text fill="#eeeeee" stroke="none" font-family="Arial" font-size="24px" font-style="normal" font-weight="normal" text-decoration="none" x="600" y="450">UNREGISTERED</text><text fill="#eeeeee" stroke="none" font-family="Arial" font-size="24px" font-style="normal" font-weight="normal" text-decoration="none" x="600" y="480">UNREGISTERED</text><text fill="#eeeeee" stroke="none" font-family="Arial" font-size="24px" font-style="normal" font-weight="normal" text-decoration="none" x="600" y="510">UNREGISTERED</text><text fill="#eeeeee" stroke="none" font-family="Arial" font-size="24px" font-style="normal" font-weight="normal" text-decoration="none" x="600" y="540">UNREGISTERED</text><text fill="#eeeeee" stroke="none" font-family="Arial" font-size="24px" font-style="normal" font-weight="normal" text-decoration="none" x="800" y="0">UNREGISTERED</text><text fill="#eeeeee" stroke="none" font-family="Arial" font-size="24px" font-style="normal" font-weight="normal" text-decoration="none" x="800" y="30">UNREGISTERED</text><text fill="#eeeeee" stroke="none" font-family="Arial" font-size="24px" font-style="normal" font-weight="normal" text-decoration="none" x="800" y="60">UNREGISTERED</text><text fill="#eeeeee" stroke="none" font-family="Arial" font-size="24px" font-style="normal" font-weight="normal" text-decoration="none" x="800" y="90">UNREGISTERED</text><text fill="#eeeeee" stroke="none" font-family="Arial" font-size="24px" font-style="normal" font-weight="normal" text-decoration="none" x="800" y="120">UNREGISTERED</text><text fill="#eeeeee" stroke="none" font-family="Arial" font-size="24px" font-style="normal" font-weight="normal" text-decoration="none" x="800" y="150">UNREGISTERED</text><text fill="#eeeeee" stroke="none" font-family="Arial" font-size="24px" font-style="normal" font-weight="normal" text-decoration="none" x="800" y="180">UNREGISTERED</text><text fill="#eeeeee" stroke="none" font-family="Arial" font-size="24px" font-style="normal" font-weight="normal" text-decoration="none" x="800" y="210">UNREGISTERED</text><text fill="#eeeeee" stroke="none" font-family="Arial" font-size="24px" font-style="normal" font-weight="normal" text-decoration="none" x="800" y="240">UNREGISTERED</text><text fill="#eeeeee" stroke="none" font-family="Arial" font-size="24px" font-style="normal" font-weight="normal" text-decoration="none" x="800" y="270">UNREGISTERED</text><text fill="#eeeeee" stroke="none" font-family="Arial" font-size="24px" font-style="normal" font-weight="normal" text-decoration="none" x="800" y="300">UNREGISTERED</text><text fill="#eeeeee" stroke="none" font-family="Arial" font-size="24px" font-style="normal" font-weight="normal" text-decoration="none" x="800" y="330">UNREGISTERED</text><text fill="#eeeeee" stroke="none" font-family="Arial" font-size="24px" font-style="normal" font-weight="normal" text-decoration="none" x="800" y="360">UNREGISTERED</text><text fill="#eeeeee" stroke="none" font-family="Arial" font-size="24px" font-style="normal" font-weight="normal" text-decoration="none" x="800" y="390">UNREGISTERED</text><text fill="#eeeeee" stroke="none" font-family="Arial" font-size="24px" font-style="normal" font-weight="normal" text-decoration="none" x="800" y="420">UNREGISTERED</text><text fill="#eeeeee" stroke="none" font-family="Arial" font-size="24px" font-style="normal" font-weight="normal" text-decoration="none" x="800" y="450">UNREGISTERED</text><text fill="#eeeeee" stroke="none" font-family="Arial" font-size="24px" font-style="normal" font-weight="normal" text-decoration="none" x="800" y="480">UNREGISTERED</text><text fill="#eeeeee" stroke="none" font-family="Arial" font-size="24px" font-style="normal" font-weight="normal" text-decoration="none" x="800" y="510">UNREGISTERED</text><text fill="#eeeeee" stroke="none" font-family="Arial" font-size="24px" font-style="normal" font-weight="normal" text-decoration="none" x="800" y="540">UNREGISTERED</text><text fill="#eeeeee" stroke="none" font-family="Arial" font-size="24px" font-style="normal" font-weight="normal" text-decoration="none" x="1000" y="0">UNREGISTERED</text><text fill="#eeeeee" stroke="none" font-family="Arial" font-size="24px" font-style="normal" font-weight="normal" text-decoration="none" x="1000" y="30">UNREGISTERED</text><text fill="#eeeeee" stroke="none" font-family="Arial" font-size="24px" font-style="normal" font-weight="normal" text-decoration="none" x="1000" y="60">UNREGISTERED</text><text fill="#eeeeee" stroke="none" font-family="Arial" font-size="24px" font-style="normal" font-weight="normal" text-decoration="none" x="1000" y="90">UNREGISTERED</text><text fill="#eeeeee" stroke="none" font-family="Arial" font-size="24px" font-style="normal" font-weight="normal" text-decoration="none" x="1000" y="120">UNREGISTERED</text><text fill="#eeeeee" stroke="none" font-family="Arial" font-size="24px" font-style="normal" font-weight="normal" text-decoration="none" x="1000" y="150">UNREGISTERED</text><text fill="#eeeeee" stroke="none" font-family="Arial" font-size="24px" font-style="normal" font-weight="normal" text-decoration="none" x="1000" y="180">UNREGISTERED</text><text fill="#eeeeee" stroke="none" font-family="Arial" font-size="24px" font-style="normal" font-weight="normal" text-decoration="none" x="1000" y="210">UNREGISTERED</text><text fill="#eeeeee" stroke="none" font-family="Arial" font-size="24px" font-style="normal" font-weight="normal" text-decoration="none" x="1000" y="240">UNREGISTERED</text><text fill="#eeeeee" stroke="none" font-family="Arial" font-size="24px" font-style="normal" font-weight="normal" text-decoration="none" x="1000" y="270">UNREGISTERED</text><text fill="#eeeeee" stroke="none" font-family="Arial" font-size="24px" font-style="normal" font-weight="normal" text-decoration="none" x="1000" y="300">UNREGISTERED</text><text fill="#eeeeee" stroke="none" font-family="Arial" font-size="24px" font-style="normal" font-weight="normal" text-decoration="none" x="1000" y="330">UNREGISTERED</text><text fill="#eeeeee" stroke="none" font-family="Arial" font-size="24px" font-style="normal" font-weight="normal" text-decoration="none" x="1000" y="360">UNREGISTERED</text><text fill="#eeeeee" stroke="none" font-family="Arial" font-size="24px" font-style="normal" font-weight="normal" text-decoration="none" x="1000" y="390">UNREGISTERED</text><text fill="#eeeeee" stroke="none" font-family="Arial" font-size="24px" font-style="normal" font-weight="normal" text-decoration="none" x="1000" y="420">UNREGISTERED</text><text fill="#eeeeee" stroke="none" font-family="Arial" font-size="24px" font-style="normal" font-weight="normal" text-decoration="none" x="1000" y="450">UNREGISTERED</text><text fill="#eeeeee" stroke="none" font-family="Arial" font-size="24px" font-style="normal" font-weight="normal" text-decoration="none" x="1000" y="480">UNREGISTERED</text><text fill="#eeeeee" stroke="none" font-family="Arial" font-size="24px" font-style="normal" font-weight="normal" text-decoration="none" x="1000" y="510">UNREGISTERED</text><text fill="#eeeeee" stroke="none" font-family="Arial" font-size="24px" font-style="normal" font-weight="normal" text-decoration="none" x="1000" y="540">UNREGISTERED</text><g transform="translate(-158,-14) scale(1,1)"><rect fill="#C0C0C0" stroke="none" x="935" y="191" width="256" height="100" opacity="0.2"/></g><g transform="translate(-158,-14) scale(1,1)"><rect fill="#ffffff" stroke="none" x="928" y="184" width="256" height="100"/></g><g transform="translate(-158,-14) scale(1,1)"><path fill="none" stroke="#000000" d="M 928 184 L 1184 184 L 1184 284 L 928 284 L 928 184 Z Z" stroke-miterlimit="10"/></g><g transform="translate(-158,-14) scale(1,1)"><path fill="none" stroke="#000000" d="M 928 209 L 1184 209" stroke-miterlimit="10"/></g><g transform="translate(-158,-14) scale(1,1)"><path fill="none" stroke="#000000" d="M 928 232 L 1184 232" stroke-miterlimit="10"/></g><g transform="translate(-158,-14) scale(1,1)"><g><path fill="none" stroke="none"/><text fill="#000000" stroke="none" font-family="Arial" font-size="13px" font-style="normal" font-weight="bold" text-decoration="none" x="1040.8291015625" y="203.5">Atom</text></g></g><g transform="translate(-158,-14) scale(1,1)"><g><path fill="none" stroke="none"/><text fill="#000000" stroke="none" font-family="Arial" font-size="13px" font-style="normal" font-weight="normal" text-decoration="none" x="933" y="226.5">-Nom: string {unique}</text></g></g><g transform="translate(-158,-14) scale(1,1)"><g><path fill="none" stroke="none"/><text fill="#000000" stroke="none" font-family="Arial" font-size="13px" font-style="normal" font-weight="normal" text-decoration="none" x="933" y="249.5">+evaluate()</text></g></g><g transform="translate(-158,-14) scale(1,1)"><g><path fill="none" stroke="none"/><text fill="#000000" stroke="none" font-family="Arial" font-size="13px" font-style="normal" font-weight="normal" text-decoration="none" x="933" y="264.5">+toString()</text></g></g><g transform="translate(-158,-14) scale(1,1)"><rect fill="#C0C0C0" stroke="none" x="863" y="31" width="95.72802734375" height="113" opacity="0.2"/></g><g transform="translate(-158,-14) scale(1,1)"><rect fill="#ffffff" stroke="none" x="856" y="24" width="95.72802734375" height="113"/></g><g transform="translate(-158,-14) scale(1,1)"><path fill="none" stroke="#000000" d="M 856 24 L 951.72802734375 24 L 951.72802734375 137 L 856 137 L 856 24 Z Z" stroke-miterlimit="10"/></g><g transform="translate(-158,-14) scale(1,1)"><path fill="none" stroke="#000000" d="M 856 115 L 951.72802734375 115" stroke-miterlimit="10"/></g><g transform="translate(-158,-14) scale(1,1)"><path fill="none" stroke="#000000" d="M 856 62 L 951.72802734375 62" stroke-miterlimit="10"/></g><g transform="translate(-158,-14) scale(1,1)"><g><path fill="none" stroke="none"/><text fill="#000000" stroke="none" font-family="Arial" font-size="13px" font-style="normal" font-weight="normal" text-decoration="none" x="860.5" y="41.5">«enumeration»</text></g></g><g transform="translate(-158,-14) scale(1,1)"><g><path fill="none" stroke="none"/><text fill="#000000" stroke="none" font-family="Arial" font-size="13px" font-style="normal" font-weight="bold" text-decoration="none" x="872.551025390625" y="56.5">ThreeVal_t</text></g></g><g transform="translate(-158,-14) scale(1,1)"><g><path fill="none" stroke="none"/><text fill="#000000" stroke="none" font-family="Arial" font-size="13px" font-style="normal" font-weight="normal" text-decoration="none" x="861" y="79.5">T</text></g></g><g transform="translate(-158,-14) scale(1,1)"><g><path fill="none" stroke="none"/><text fill="#000000" stroke="none" font-family="Arial" font-size="13px" font-style="normal" font-weight="normal" text-decoration="none" x="861" y="94.5">F</text></g></g><g transform="translate(-158,-14) scale(1,1)"><g><path fill="none" stroke="none"/><text fill="#000000" stroke="none" font-family="Arial" font-size="13px" font-style="normal" font-weight="normal" text-decoration="none" x="861" y="109.5">U</text></g></g><g transform="translate(-158,-14) scale(1,1)"><path fill="none" stroke="#000000" d="M 1005 183 L 953 130" stroke-miterlimit="10"/></g><g transform="translate(-158,-14) scale(1,1)"><path fill="#000000" stroke="none" d="M 963.122125169442 134.30610985161186 L 953 130 L 957.1125438707226 140.2023028239404 L 968.4074947428177 145.7037927186411"/></g><g transform="translate(-158,-14) scale(1,1)"><path fill="none" stroke="#000000" d="M 963.122125169442 134.30610985161186 L 953 130 L 957.1125438707226 140.2023028239404 L 968.4074947428177 145.7037927186411 L 963.122125169442 134.30610985161186" stroke-miterlimit="10"/></g><g transform="translate(-158,-14) scale(1,1)"><g><path fill="none" stroke="none"/><text fill="#000000" stroke="none" font-family="Arial" font-size="13px" font-style="normal" font-weight="normal" text-decoration="none" x="956.13134765625" y="177.5">-Val</text></g></g><g transform="translate(-158,-14) scale(1,1)"><rect fill="#C0C0C0" stroke="none" x="639" y="143" width="184" height="152" opacity="0.2"/></g><g transform="translate(-158,-14) scale(1,1)"><rect fill="#ffffff" stroke="none" x="632" y="136" width="184" height="152"/></g><g transform="translate(-158,-14) scale(1,1)"><path fill="none" stroke="#000000" d="M 632 136 L 816 136 L 816 288 L 632 288 L 632 136 Z Z" stroke-miterlimit="10"/></g><g transform="translate(-158,-14) scale(1,1)"><path fill="none" stroke="#000000" d="M 632 161 L 816 161" stroke-miterlimit="10"/></g><g transform="translate(-158,-14) scale(1,1)"><path fill="none" stroke="#000000" d="M 632 171 L 816 171" stroke-miterlimit="10"/></g><g transform="translate(-158,-14) scale(1,1)"><g><path fill="none" stroke="none"/><text fill="#000000" stroke="none" font-family="Arial" font-size="13px" font-style="italic" font-weight="bold" text-decoration="none" x="701.95458984375" y="155.5">ExpLog</text></g></g><g transform="translate(-158,-14) scale(1,1)"><g><path fill="none" stroke="none"/><text fill="#000000" stroke="none" font-family="Arial" font-size="13px" font-style="italic" font-weight="normal" text-decoration="none" x="637" y="188.5">+to_string()</text></g></g><g transform="translate(-158,-14) scale(1,1)"><g><path fill="none" stroke="none"/><text fill="#000000" stroke="none" font-family="Arial" font-size="13px" font-style="italic" font-weight="normal" text-decoration="none" x="637" y="203.5">+evaluate()</text></g></g><g transform="translate(-158,-14) scale(1,1)"><rect fill="#C0C0C0" stroke="none" x="391" y="175" width="152" height="96" opacity="0.2"/></g><g transform="translate(-158,-14) scale(1,1)"><rect fill="#ffffff" stroke="none" x="384" y="168" width="152" height="96"/></g><g transform="translate(-158,-14) scale(1,1)"><path fill="none" stroke="#000000" d="M 384 168 L 536 168 L 536 264 L 384 264 L 384 168 Z Z" stroke-miterlimit="10"/></g><g transform="translate(-158,-14) scale(1,1)"><path fill="none" stroke="#000000" d="M 384 193 L 536 193" stroke-miterlimit="10"/></g><g transform="translate(-158,-14) scale(1,1)"><path fill="none" stroke="#000000" d="M 384 216 L 536 216" stroke-miterlimit="10"/></g><g transform="translate(-158,-14) scale(1,1)"><g><path fill="none" stroke="none"/><text fill="#000000" stroke="none" font-family="Arial" font-size="13px" font-style="normal" font-weight="bold" text-decoration="none" x="438.6845703125" y="187.5">ExpNot</text></g></g><g transform="translate(-158,-14) scale(1,1)"><g><path fill="none" stroke="none"/><text fill="#000000" stroke="none" font-family="Arial" font-size="13px" font-style="normal" font-weight="normal" text-decoration="none" x="389" y="210.5">+Nom: string</text></g></g><g transform="translate(-158,-14) scale(1,1)"><g><path fill="none" stroke="none"/><text fill="#000000" stroke="none" font-family="Arial" font-size="13px" font-style="normal" font-weight="normal" text-decoration="none" x="389" y="233.5">+to_string()</text></g></g><g transform="translate(-158,-14) scale(1,1)"><g><path fill="none" stroke="none"/><text fill="#000000" stroke="none" font-family="Arial" font-size="13px" font-style="normal" font-weight="normal" text-decoration="none" x="389" y="248.5">+evaluate()</text></g></g><g transform="translate(-158,-14) scale(1,1)"><rect fill="#C0C0C0" stroke="none" x="407" y="447" width="160" height="96" opacity="0.2"/></g><g transform="translate(-158,-14) scale(1,1)"><rect fill="#ffffff" stroke="none" x="400" y="440" width="160" height="96"/></g><g transform="translate(-158,-14) scale(1,1)"><path fill="none" stroke="#000000" d="M 400 440 L 560 440 L 560 536 L 400 536 L 400 440 Z Z" stroke-miterlimit="10"/></g><g transform="translate(-158,-14) scale(1,1)"><path fill="none" stroke="#000000" d="M 400 465 L 560 465" stroke-miterlimit="10"/></g><g transform="translate(-158,-14) scale(1,1)"><path fill="none" stroke="#000000" d="M 400 475 L 560 475" stroke-miterlimit="10"/></g><g transform="translate(-158,-14) scale(1,1)"><g><path fill="none" stroke="none"/><text fill="#000000" stroke="none" font-family="Arial" font-size="13px" font-style="normal" font-weight="bold" text-decoration="none" x="461.5791015625" y="459.5">ExpOr</text></g></g><g transform="translate(-158,-14) scale(1,1)"><g><path fill="none" stroke="none"/><text fill="#000000" stroke="none" font-family="Arial" font-size="13px" font-style="normal" font-weight="normal" text-decoration="none" x="405" y="492.5">+to_string()</text></g></g><g transform="translate(-158,-14) scale(1,1)"><g><path fill="none" stroke="none"/><text fill="#000000" stroke="none" font-family="Arial" font-size="13px" font-style="normal" font-weight="normal" text-decoration="none" x="405" y="507.5">+evaluate()</text></g></g><g transform="translate(-158,-14) scale(1,1)"><rect fill="#C0C0C0" stroke="none" x="919" y="447" width="160" height="96" opacity="0.2"/></g><g transform="translate(-158,-14) scale(1,1)"><rect fill="#ffffff" stroke="none" x="912" y="440" width="160" height="96"/></g><g transform="translate(-158,-14) scale(1,1)"><path fill="none" stroke="#000000" d="M 912 440 L 1072 440 L 1072 536 L 912 536 L 912 440 Z Z" stroke-miterlimit="10"/></g><g transform="translate(-158,-14) scale(1,1)"><path fill="none" stroke="#000000" d="M 912 465 L 1072 465" stroke-miterlimit="10"/></g><g transform="translate(-158,-14) scale(1,1)"><path fill="none" stroke="#000000" d="M 912 475 L 1072 475" stroke-miterlimit="10"/></g><g transform="translate(-158,-14) scale(1,1)"><g><path fill="none" stroke="none"/><text fill="#000000" stroke="none" font-family="Arial" font-size="13px" font-style="normal" font-weight="bold" text-decoration="none" x="969.234130859375" y="459.5">ExpAnd</text></g></g><g transform="translate(-158,-14) scale(1,1)"><g><path fill="none" stroke="none"/><text fill="#000000" stroke="none" font-family="Arial" font-size="13px" font-style="normal" font-weight="normal" text-decoration="none" x="917" y="492.5">+to_string()</text></g></g><g transform="translate(-158,-14) scale(1,1)"><g><path fill="none" stroke="none"/><text fill="#000000" stroke="none" font-family="Arial" font-size="13px" font-style="normal" font-weight="normal" text-decoration="none" x="917" y="507.5">+evaluate()</text></g></g><g transform="translate(-158,-14) scale(1,1)"><path fill="none" stroke="#000000" d="M 537 198 L 560 192 L 631 201" stroke-miterlimit="10"/></g><g transform="translate(-158,-14) scale(1,1)"><path fill="#FFFFFF" stroke="none" d="M 609.7772750393732 206.79620093212702 L 631 201 L 611.894734280857 190.0918002493106"/></g><g transform="translate(-158,-14) scale(1,1)"><path fill="none" stroke="#000000" d="M 609.7772750393732 206.79620093212702 L 631 201 L 611.894734280857 190.0918002493106 L 609.7772750393732 206.79620093212702" stroke-miterlimit="10"/></g><g transform="translate(-158,-14) scale(1,1)"><rect fill="#C0C0C0" stroke="none" x="631" y="431" width="200" height="128" opacity="0.2"/></g><g transform="translate(-158,-14) scale(1,1)"><rect fill="#ffffff" stroke="none" x="624" y="424" width="200" height="128"/></g><g transform="translate(-158,-14) scale(1,1)"><path fill="none" stroke="#000000" d="M 624 424 L 824 424 L 824 552 L 624 552 L 624 424 Z Z" stroke-miterlimit="10"/></g><g transform="translate(-158,-14) scale(1,1)"><path fill="none" stroke="#000000" d="M 624 449 L 824 449" stroke-miterlimit="10"/></g><g transform="translate(-158,-14) scale(1,1)"><path fill="none" stroke="#000000" d="M 624 459 L 824 459" stroke-miterlimit="10"/></g><g transform="translate(-158,-14) scale(1,1)"><g><path fill="none" stroke="none"/><text fill="#000000" stroke="none" font-family="Arial" font-size="13px" font-style="italic" font-weight="bold" text-decoration="none" x="703.405029296875" y="443.5">ExpBin</text></g></g><g transform="translate(-158,-14) scale(1,1)"><path fill="none" stroke="#000000" d="M 561 488 L 623 488" stroke-miterlimit="10"/></g><g transform="translate(-158,-14) scale(1,1)"><path fill="#FFFFFF" stroke="none" d="M 602.6746502847517 496.419035512032 L 623 488 L 602.6746502847517 479.580964487968"/></g><g transform="translate(-158,-14) scale(1,1)"><path fill="none" stroke="#000000" d="M 602.6746502847517 496.419035512032 L 623 488 L 602.6746502847517 479.580964487968 L 602.6746502847517 496.419035512032" stroke-miterlimit="10"/></g><g transform="translate(-158,-14) scale(1,1)"><path fill="none" stroke="#000000" d="M 911 488 L 825 488" stroke-miterlimit="10"/></g><g transform="translate(-158,-14) scale(1,1)"><path fill="#FFFFFF" stroke="none" d="M 845.3253497152483 479.580964487968 L 825 488 L 845.3253497152483 496.419035512032"/></g><g transform="translate(-158,-14) scale(1,1)"><path fill="none" stroke="#000000" d="M 845.3253497152483 479.580964487968 L 825 488 L 845.3253497152483 496.419035512032 L 845.3253497152483 479.580964487968" stroke-miterlimit="10"/></g><g transform="translate(-158,-14) scale(1,1)"><path fill="none" stroke="#000000" d="M 724 423 L 724 289" stroke-miterlimit="10"/></g><g transform="translate(-158,-14) scale(1,1)"><path fill="#FFFFFF" stroke="none" d="M 732.419035512032 309.3253497152483 L 724 289 L 715.580964487968 309.3253497152483"/></g><g transform="translate(-158,-14) scale(1,1)"><path fill="none" stroke="#000000" d="M 732.419035512032 309.3253497152483 L 724 289 L 715.580964487968 309.3253497152483 L 732.419035512032 309.3253497152483" stroke-miterlimit="10"/></g><g transform="translate(-158,-14) scale(1,1)"><path fill="none" stroke="#000000" d="M 927 225 L 817 218" stroke-miterlimit="10"/></g><g transform="translate(-158,-14) scale(1,1)"><path fill="#FFFFFF" stroke="none" d="M 837.8189949477776 210.88878003684223 L 817 218 L 836.74964436352 227.69286064660398"/></g><g transform="translate(-158,-14) scale(1,1)"><path fill="none" stroke="#000000" d="M 837.8189949477776 210.88878003684223 L 817 218 L 836.74964436352 227.69286064660398 L 837.8189949477776 210.88878003684223" stroke-miterlimit="10"/></g><g transform="translate(-158,-14) scale(1,1)"><path fill="none" stroke="#000000" d="M 924 439 L 848 384 L 780 289" stroke-miterlimit="10"/></g><g transform="translate(-158,-14) scale(1,1)"><path fill="#FFFFFF" stroke="none" d="M 789.3381496567393 294.8136873830934 L 780 289 L 782.4921711737312 299.7139667182992 L 792.8050469938579 306.88940388847794"/></g><g transform="translate(-158,-14) scale(1,1)"><path fill="none" stroke="#000000" d="M 789.3381496567393 294.8136873830934 L 780 289 L 782.4921711737312 299.7139667182992 L 792.8050469938579 306.88940388847794 L 789.3381496567393 294.8136873830934" stroke-miterlimit="10"/></g><g transform="translate(-158,-14) scale(1,1)"><g><path fill="none" stroke="none"/><text fill="#000000" stroke="none" font-family="Arial" font-size="13px" font-style="normal" font-weight="normal" text-decoration="none" x="864.13134765625" y="379.5">-operands</text></g></g><g transform="translate(-158,-14) scale(1,1)"><path fill="none" stroke="#000000" d="M 543 439 L 624 376 L 677 289" stroke-miterlimit="10"/></g><g transform="translate(-158,-14) scale(1,1)"><path fill="#FFFFFF" stroke="none" d="M 675.3077496415284 299.8690518778895 L 677 289 L 668.1178180081354 295.48897858398334 L 665.5543169014765 307.78819678436895"/></g><g transform="translate(-158,-14) scale(1,1)"><path fill="none" stroke="#000000" d="M 675.3077496415284 299.8690518778895 L 677 289 L 668.1178180081354 295.48897858398334 L 665.5543169014765 307.78819678436895 L 675.3077496415284 299.8690518778895" stroke-miterlimit="10"/></g><g transform="translate(-158,-14) scale(1,1)"><g><path fill="none" stroke="none"/><text fill="#000000" stroke="none" font-family="Arial" font-size="13px" font-style="normal" font-weight="normal" text-decoration="none" x="544.13134765625" y="364.5">-operands</text></g></g><g transform="translate(-158,-14) scale(1,1)"><path fill="none" stroke="#000000" d="M 537 247 L 560 256 L 592 256 L 631 243" stroke-miterlimit="10"/></g><g transform="translate(-158,-14) scale(1,1)"><path fill="#FFFFFF" stroke="none" d="M 622.6900064950472 250.20721915496142 L 631 243 L 620.0276737030609 242.22022077900252 L 610.1289674428887 249.95701085237044"/></g><g transform="translate(-158,-14) scale(1,1)"><path fill="none" stroke="#000000" d="M 622.6900064950472 250.20721915496142 L 631 243 L 620.0276737030609 242.22022077900252 L 610.1289674428887 249.95701085237044 L 622.6900064950472 250.20721915496142" stroke-miterlimit="10"/></g><g transform="translate(-158,-14) scale(1,1)"><g><path fill="none" stroke="none"/><text fill="#000000" stroke="none" font-family="Arial" font-size="13px" font-style="normal" font-weight="normal" text-decoration="none" x="550.13134765625" y="247.5">-operand</text></g></g></g></svg>